<svg xmlns="http://www.w3.org/2000/svg" xmlns:xlink="http://www.w3.org/1999/xlink" width="74" height="21" viewBox="0 0 74 21">
    <defs>
        <path id="a" d="M0 20.986h73.57V0H0z"/>
    </defs>
    <g fill="none" fill-rule="evenodd">
        <path fill="#999" d="M46.431 12.268c-.572.6-1.292.9-2.156.9-.862 0-1.576-.295-2.14-.886-.565-.59-.846-1.361-.846-2.318 0-.925.286-1.683.857-2.278.57-.594 1.284-.893 2.14-.893.876 0 1.597.294 2.158.88.566.59.847 1.355.847 2.291 0 .941-.285 1.708-.86 2.304m.735-7.286a5.84 5.84 0 0 0-2.928-.775c-1.43 0-2.702.495-3.807 1.49-1.26 1.141-1.889 2.565-1.889 4.278 0 1.599.558 2.954 1.671 4.072 1.119 1.12 2.46 1.68 4.038 1.68 1.07 0 2.048-.255 2.94-.763a5.607 5.607 0 0 0 2.106-2.108c.515-.901.77-1.87.77-2.9a5.62 5.62 0 0 0-.766-2.87 5.61 5.61 0 0 0-2.135-2.104"/>
        <mask id="b" fill="#fff">
            <use xlink:href="#a"/>
        </mask>
        <path fill="#999" d="M51.974 15.624h2.744V0h-2.744zM60.101 4.298h-2.746v9.842c0 2.89-.162 3.877-2.38 4.064v2.782c5.161 0 5.126-4.202 5.126-6.087v-10.6zM21.575 11.17c-.166.379-.39.712-.668.988-.28.28-.613.504-.992.667a3.153 3.153 0 0 1-2.408 0 3.12 3.12 0 0 1-.989-.667 3.074 3.074 0 0 1-.669-3.4 3.105 3.105 0 0 1 1.658-1.662c.369-.16.78-.241 1.205-.241.423 0 .832.082 1.203.24.379.163.712.385.992.665.279.28.502.614.668.999.16.374.24.782.24 1.21 0 .426-.08.83-.24 1.2m1.22-5.289a5.845 5.845 0 0 0-1.861-1.244 5.812 5.812 0 0 0-4.446 0c-.7.294-1.328.71-1.86 1.247a5.61 5.61 0 0 0-1.256 1.876 5.747 5.747 0 0 0 1.255 6.28c.533.533 1.162.95 1.861 1.245a5.716 5.716 0 0 0 2.224.443c1.905 0 3.104-1.259 3.104-1.259v1.153h2.672V9.968c0-.764-.146-1.51-.432-2.21a5.729 5.729 0 0 0-1.261-1.878M70.658 11.17c-.165.379-.389.712-.666.988-.282.28-.615.504-.994.667a3.148 3.148 0 0 1-2.407 0 3.133 3.133 0 0 1-.99-.667 3.054 3.054 0 0 1-.67-.989 2.983 2.983 0 0 1-.243-1.2c0-.428.08-.836.245-1.211.163-.384.383-.718.668-.998.278-.28.612-.502.99-.665.37-.158.78-.24 1.203-.24.426 0 .834.082 1.204.24.38.163.712.385.994.665.277.28.501.614.666.999.159.374.243.782.243 1.21 0 .426-.084.83-.243 1.2m1.22-5.289a5.827 5.827 0 0 0-1.861-1.244 5.813 5.813 0 0 0-4.446 0c-.7.294-1.329.71-1.86 1.247a5.766 5.766 0 0 0-1.258 6.278 5.795 5.795 0 0 0 3.118 3.123c.701.294 1.45.443 2.223.443 1.908 0 3.107-1.259 3.107-1.259v1.153h2.669V9.968c0-.764-.145-1.51-.434-2.21a5.671 5.671 0 0 0-1.258-1.878M29.406 10.13v5.493h-2.741V4.311h2.764v.981a2.99 2.99 0 0 1 .605-.452 4.82 4.82 0 0 1 1.55-.566 4.31 4.31 0 0 1 .793-.078c.556 0 1.093.088 1.607.264.514.178.97.45 1.371.816.4.368.72.842.964 1.422.238.584.36 1.282.36 2.079v6.846h-2.742V9.486c0-.314-.014-.574-.034-.794a4.809 4.809 0 0 0-.062-.39c-.204-1.055-1.167-1.782-2.157-1.693 0 0-1.375.052-1.949 1.328 0 0-.345.6-.329 2.193M7.87 15.448l4.864-11.15H9.592l-3.239 7.636-3.209-7.635H0l4.823 11.149-2.418 5.538h3.053l2.413-5.535h.002z" mask="url(#b)"/>
    </g>
</svg>
