<svg width="80" height="80" viewBox="0 0 80 80" fill="none" xmlns="http://www.w3.org/2000/svg">
<g clip-path="url(#clip0_33_121)">
<path d="M78.75 75H1.25C0.5 75 0 75.625 0 76.25V78.75C0 79.375 0.5 80 1.25 80H78.75C79.375 80 80 79.375 80 78.75V76.25C80 75.625 79.375 75 78.75 75Z" fill="#62727A"/>
<path d="M50 80H30L35 75H45L50 80Z" fill="#ED4C5C"/>
<path d="M63.75 45H16.25C13.5 45 11.25 47.25 11.25 50V75H68.75V50C68.75 47.25 66.5 45 63.75 45ZM50 27.5H30C27.25 27.5 25 29.75 25 32.5V45H55V32.5C55 29.75 52.75 27.5 50 27.5Z" fill="#E8E8E8"/>
<path d="M23.75 55H56.25V62.5H23.75V55ZM26.375 47V49.375H28.75V47H30.125V53H28.75V50.5H26.5V53H25V47H26.375ZM37.875 50C37.875 52 36.625 53.125 34.875 53.125C33 53.125 32 51.75 32 50C32 48.125 33.125 46.875 35 46.875C36.875 46.875 37.875 48.25 37.875 50ZM33.375 50C33.375 51.125 34 52 34.875 52C35.875 52 36.375 51.125 36.375 50C36.375 48.875 35.875 48 34.875 48C34 48 33.375 48.875 33.375 50ZM40.625 48.125H39V47H43.75V48.125H42.125V53H40.75V48.125H40.625ZM49 50.5H46.75V51.875H49.25V53H45.375V47H49.125V48.125H46.75V49.375H49V50.5ZM51.125 47H52.5V51.875H55V53H51.125V47Z" fill="#62727A"/>
<path d="M42.5 58.125H40.625L40 56.25L39.375 58.125H37.5L39 59.375L38.5 61.25L40 60.125L41.5 61.25L41 59.375L42.5 58.125ZM36.25 58.125H34.375L33.75 56.25L33.125 58.125H31.25L32.75 59.375L32.25 61.25L33.75 60.125L35.25 61.25L34.75 59.375L36.25 58.125ZM48.75 58.125H46.875L46.25 56.25L45.625 58.125H43.75L45.25 59.375L44.75 61.25L46.25 60.125L47.75 61.25L47.25 59.375L48.75 58.125ZM55 58.125H53.125L52.5 56.25L51.875 58.125H50L51.5 59.375L51 61.25L52.5 60.125L54 61.25L53.5 59.375L55 58.125ZM30 58.125H28.125L27.5 56.25L26.875 58.125H25L26.5 59.375L26 61.25L27.5 60.125L29 61.25L28.5 59.375L30 58.125Z" fill="#FFDD7D"/>
<path d="M26.25 62.5H31.25V75H26.25V62.5ZM48.75 62.5H53.75V75H48.75V62.5Z" fill="#B2C1C0"/>
<path d="M35 62.5H45V75H35V62.5Z" fill="#42ADE2"/>
<path d="M38.75 62.5H41.25V75H38.75V62.5Z" fill="#E8E8E8"/>
<path d="M35 62.5H38.75V65H35V62.5ZM41.25 62.5H45V65H41.25V62.5Z" fill="#428BC1"/>
<path d="M38.75 62.5H41.25V65H38.75V62.5ZM41.25 1.25C41.25 0.5 40.625 0 40 0C39.25 0 38.75 0.5 38.75 1.25V12.5C38.75 13.25 39.25 13.75 40 13.75C40.625 13.75 41.25 13.25 41.25 12.5V1.25Z" fill="#B2C1C0"/>
<path d="M45.375 15.375L43.375 13.375C42.875 12.875 41.875 12.5 41.25 12.5H38.75C38 12.5 37.125 12.875 36.625 13.375L34.625 15.375C34.125 15.875 33.75 16.75 33.75 17.5V27.5H46.25V17.5C46.25 16.75 45.875 15.875 45.375 15.375Z" fill="#E8E8E8"/>
<path d="M20 48.75H15C14.25 48.75 13.75 49.375 13.75 50V52.5C13.75 53.125 14.25 53.75 15 53.75H20C20.625 53.75 21.25 53.125 21.25 52.5V50C21.25 49.375 20.625 48.75 20 48.75ZM42.5 30H37.5C36.75 30 36.25 30.625 36.25 31.25V41.25C36.25 41.875 36.75 42.5 37.5 42.5H42.5C43.125 42.5 43.75 41.875 43.75 41.25V31.25C43.75 30.625 43.125 30 42.5 30ZM65 48.75H60C59.25 48.75 58.75 49.375 58.75 50V52.5C58.75 53.125 59.25 53.75 60 53.75H65C65.625 53.75 66.25 53.125 66.25 52.5V50C66.25 49.375 65.625 48.75 65 48.75ZM20 57.5H15C14.25 57.5 13.75 58.125 13.75 58.75V61.25C13.75 61.875 14.25 62.5 15 62.5H20C20.625 62.5 21.25 61.875 21.25 61.25V58.75C21.25 58.125 20.625 57.5 20 57.5ZM65 57.5H60C59.25 57.5 58.75 58.125 58.75 58.75V61.25C58.75 61.875 59.25 62.5 60 62.5H65C65.625 62.5 66.25 61.875 66.25 61.25V58.75C66.25 58.125 65.625 57.5 65 57.5ZM20 66.25H15C14.25 66.25 13.75 66.875 13.75 67.5V70C13.75 70.625 14.25 71.25 15 71.25H20C20.625 71.25 21.25 70.625 21.25 70V67.5C21.25 66.875 20.625 66.25 20 66.25ZM65 66.25H60C59.25 66.25 58.75 66.875 58.75 67.5V70C58.75 70.625 59.25 71.25 60 71.25H65C65.625 71.25 66.25 70.625 66.25 70V67.5C66.25 66.875 65.625 66.25 65 66.25ZM38.75 18.75C38.75 18 38.125 17.5 37.5 17.5C36.75 17.5 36.25 18 36.25 18.75V23.75C36.25 24.375 36.75 25 37.5 25C38.125 25 38.75 24.375 38.75 23.75V18.75ZM43.75 18.75C43.75 18 43.125 17.5 42.5 17.5C41.75 17.5 41.25 18 41.25 18.75V23.75C41.25 24.375 41.75 25 42.5 25C43.125 25 43.75 24.375 43.75 23.75V18.75ZM28.75 30C28 30 27.5 30.625 27.5 31.25V33.75C27.5 34.375 28 35 28.75 35H32.5C33.125 35 33.75 34.375 33.75 33.75V31.25C33.75 30.625 33.125 30 32.5 30H28.75ZM28.75 37.5C28 37.5 27.5 38.125 27.5 38.75V41.25C27.5 41.875 28 42.5 28.75 42.5H32.5C33.125 42.5 33.75 41.875 33.75 41.25V38.75C33.75 38.125 33.125 37.5 32.5 37.5H28.75ZM47.5 30C46.75 30 46.25 30.625 46.25 31.25V33.75C46.25 34.375 46.75 35 47.5 35H51.25C51.875 35 52.5 34.375 52.5 33.75V31.25C52.5 30.625 51.875 30 51.25 30H47.5ZM47.5 37.5C46.75 37.5 46.25 38.125 46.25 38.75V41.25C46.25 41.875 46.75 42.5 47.5 42.5H51.25C51.875 42.5 52.5 41.875 52.5 41.25V38.75C52.5 38.125 51.875 37.5 51.25 37.5H47.5Z" fill="#42ADE2"/>
<path d="M41.25 1.75003V8.12503C44.625 10 45.375 6.25003 48.75 8.12503V1.75003C45.375 -0.124968 44.625 3.75003 41.25 1.75003Z" fill="#ED4C5C"/>
<path d="M12.5 49.375H11C11 49.375 9.24996 58.625 10.75 75H14.625C14.5 75 12.5 64.5 12.5 49.375Z" fill="#DBB471"/>
<path d="M12.5 47.875C12.5 47.875 7.125 37.25 0 45.75C0 45.75 5.375 43.375 11.625 50.75L12.5 47.875Z" fill="#83BF4F"/>
<path d="M10.25 48.3754L13 49.8754C19.625 42.3754 25.125 47.2504 25.125 47.2504C18.5 38.6254 10.25 48.3754 10.25 48.3754Z" fill="#83BF4F"/>
<path d="M11.5 48.375C11.5 48.375 2.62496 48.625 3.99996 59.625C3.99996 59.625 4.12495 51.875 13 51L11.5 48.375Z" fill="#83BF4F"/>
<path d="M11.5 47.875V51C21.25 53.125 19.75 60.25 19.75 60.25C24 50.25 11.5 47.875 11.5 47.875Z" fill="#83BF4F"/>
<path d="M10.25 71.5C10.25 71.5 12.125 74.25 14.5 71.5H10.25ZM9.875 67.25C9.875 67.25 11.75 70 14.125 67.25H9.875ZM9.625 63C9.625 63 11.125 65.75 13.25 63H9.625ZM9.625 58.75C9.625 58.75 11.125 61.5 13.25 58.75H9.625ZM9.875 54.5C9.875 54.5 11.125 57.25 12.875 54.5H9.875Z" fill="#89664C"/>
<path d="M67.5 49.375H69C69 49.375 70.75 58.625 69.25 75H65.375C65.5 75 67.5 64.5 67.5 49.375Z" fill="#DBB471"/>
<path d="M67.5 47.875C67.5 47.875 72.875 37.25 80 45.75C80 45.75 74.625 43.375 68.375 50.75L67.5 47.875Z" fill="#83BF4F"/>
<path d="M69.75 48.3754L67 49.8754C60.375 42.3754 54.875 47.2504 54.875 47.2504C61.5 38.6254 69.75 48.3754 69.75 48.3754Z" fill="#83BF4F"/>
<path d="M68.5 48.375C68.5 48.375 77.375 48.625 76 59.625C76 59.625 75.875 51.875 67 51L68.5 48.375Z" fill="#83BF4F"/>
<path d="M68.5001 47.875V51C58.7501 53.125 60.2501 60.25 60.2501 60.25C56.0001 50.25 68.5001 47.875 68.5001 47.875Z" fill="#83BF4F"/>
<path d="M69.75 71.5C69.75 71.5 67.875 74.25 65.5 71.5H69.75ZM70.125 67.25C70.125 67.25 68.25 70 65.875 67.25H70.125ZM70.375 63C70.375 63 68.875 65.75 66.75 63H70.375ZM70.375 58.75C70.375 58.75 68.875 61.5 66.75 58.75H70.375ZM70.125 54.5C70.125 54.5 68.875 57.25 67.125 54.5H70.125Z" fill="#89664C"/>
</g>
<defs>
<clipPath id="clip0_33_121">
<rect width="80" height="80" fill="white"/>
</clipPath>
</defs>
</svg>
