<svg width="80" height="80" viewBox="0 0 80 80" fill="none" xmlns="http://www.w3.org/2000/svg">
<path d="M5 75H15.08L39.9425 68.0625L64.805 75H75V23.25C75 22.4949 74.8513 21.7472 74.5623 21.0496C74.2733 20.3519 73.8498 19.7181 73.3159 19.1841C72.7819 18.6502 72.148 18.2267 71.4504 17.9377C70.7528 17.6487 70.0051 17.5 69.25 17.5H10.75C9.9949 17.5 9.24719 17.6487 8.54957 17.9377C7.85195 18.2267 7.21807 18.6502 6.68414 19.1841C6.1502 19.7181 5.72666 20.3519 5.43769 21.0496C5.14873 21.7472 5 22.4949 5 23.25V75Z" fill="#9B9B9B"/>
<path d="M67.5 35H65C63.625 35 62.5 33.875 62.5 32.5V30C62.5 28.625 63.625 27.5 65 27.5H67.5C68.875 27.5 70 28.625 70 30V32.5C70 33.9 68.875 35 67.5 35ZM70 45V42.5C70 41.125 68.875 40 67.5 40H65C63.625 40 62.5 41.125 62.5 42.5V45C62.5 46.375 63.625 47.5 65 47.5H67.5C68.875 47.5 70 46.4 70 45ZM70 57.5V55C70 53.625 68.875 52.5 67.5 52.5H65C63.625 52.5 62.5 53.625 62.5 55V57.5C62.5 58.875 63.625 60 65 60H67.5C68.875 60 70 58.9 70 57.5ZM17.5 55V57.5C17.5 58.875 16.375 60 15 60H12.5C11.125 60 10 58.875 10 57.5V55C10 53.625 11.125 52.5 12.5 52.5H15C16.375 52.5 17.5 53.625 17.5 55ZM15 27.5H12.5C11.125 27.5 10 28.625 10 30V32.5C10 33.875 11.125 35 12.5 35H15C16.375 35 17.5 33.875 17.5 32.5V30C17.5 28.625 16.375 27.5 15 27.5ZM15 40H12.5C11.125 40 10 41.125 10 42.5V45C10 46.375 11.125 47.5 12.5 47.5H15C16.375 47.5 17.5 46.375 17.5 45V42.5C17.5 41.125 16.375 40 15 40Z" fill="#83CBFF"/>
<path d="M65 75H47.4675L39.9275 70.675L32.39 75H15V11.15C15 7.75 17.75 5 21.15 5H58.85C62.25 5 65 7.75 65 11.15V75Z" fill="#D3D3D3"/>
<path d="M47.5 75H32.5V65.625C32.5 63.9 33.9 62.5 35.625 62.5H44.375C46.1 62.5 47.525 63.9 47.525 65.65V75H47.5Z" fill="#1C1C1C"/>
<path d="M36.25 45H28.75C28.075 45 27.5 44.45 27.5 43.75V38.725C27.5 38.05 28.05 37.475 28.75 37.475H36.275C36.95 37.475 37.525 38.025 37.525 38.725V43.75C37.5185 44.0838 37.3812 44.4017 37.1428 44.6354C36.9044 44.8692 36.5839 45.0001 36.25 45ZM52.5 43.775V38.75C52.5 38.075 51.95 37.5 51.25 37.5H43.75C43.075 37.5 42.5 38.05 42.5 38.75V43.775C42.5 44.45 43.05 45.025 43.75 45.025H51.275C51.95 45 52.5 44.45 52.5 43.775ZM37.5 56.275V51.25C37.5 50.575 36.95 50 36.25 50H28.75C28.075 50 27.5 50.55 27.5 51.25V56.275C27.5 56.95 28.05 57.525 28.75 57.525H36.275C36.95 57.5 37.5 56.95 37.5 56.275ZM52.5 56.275V51.25C52.5 50.575 51.95 50 51.25 50H43.75C43.075 50 42.5 50.55 42.5 51.25V56.275C42.5 56.95 43.05 57.525 43.75 57.525H51.275C51.95 57.5 52.5 56.95 52.5 56.275ZM37.5 18.775V13.75C37.5 13.075 36.95 12.5 36.25 12.5H28.75C28.075 12.5 27.5 13.05 27.5 13.75V18.775C27.5 19.45 28.05 20.025 28.75 20.025H36.275C36.95 20 37.5 19.45 37.5 18.775ZM52.5 18.775V13.75C52.5 13.075 51.95 12.5 51.25 12.5H43.75C43.075 12.5 42.5 13.05 42.5 13.75V18.775C42.5 19.45 43.05 20.025 43.75 20.025H51.275C51.95 20 52.5 19.45 52.5 18.775ZM37.5 31.275V26.25C37.5 25.575 36.95 25 36.25 25H28.75C28.075 25 27.5 25.55 27.5 26.25V31.275C27.5 31.95 28.05 32.525 28.75 32.525H36.275C36.95 32.5 37.5 31.95 37.5 31.275ZM52.5 31.275V26.25C52.5 25.575 51.95 25 51.25 25H43.75C43.075 25 42.5 25.55 42.5 26.25V31.275C42.5 31.95 43.05 32.525 43.75 32.525H51.275C51.95 32.5 52.5 31.95 52.5 31.275Z" fill="#83CBFF"/>
</svg>
