<svg width="80" height="80" viewBox="0 0 80 80" fill="none" xmlns="http://www.w3.org/2000/svg">
<path d="M11.975 30.5879V17.8629L10.95 17.9254V10.0879L20.8375 10.0254V17.7441H19.8125V25.2191L11.975 30.5879Z" fill="#AB5832"/>
<path d="M40.0687 14.5811L11.6687 43.1186L11.8875 69.4998L67.9812 68.9686L68.0625 40.8436L40.0687 14.5811Z" fill="#FFF3E1"/>
<path d="M10.6062 64.8686L12.5687 63.7873V42.4873L10.7437 43.7061C10.7375 43.7061 10.9437 64.8686 10.6062 64.8686ZM66.9999 43.6373V63.6561L68.9624 64.7373V44.3811L66.9999 43.6373Z" fill="#5F4E47"/>
<path d="M40.2625 17.6311L10.7375 45.2623V38.2936L40.2938 10.2998L68.9625 39.9873V45.8686L40.2625 17.6311Z" fill="#BCAA93"/>
<path d="M7.8438 37.0996L6.11255 40.2934L10.7563 40.2246C10.7563 40.2246 39.725 12.0496 40.35 12.0246C41.1063 11.9934 68.9501 40.7184 68.9501 40.7184L73.0688 40.6559L42.1688 7.36836L37.6313 7.06836L7.8438 37.0996Z" fill="#AB5832"/>
<path d="M2.4999 39.4934C2.0124 40.0871 2.49365 40.3996 2.8874 40.3996C3.28115 40.3996 7.81865 40.2684 7.81865 40.2684L39.0936 9.83712C39.0936 9.83712 39.8124 9.09962 40.3249 9.12462C40.8811 9.14962 41.5999 9.85587 41.5999 9.85587L73.0249 40.6621C73.0249 40.6621 76.6061 40.6746 77.1749 40.5309C77.7936 40.3809 77.4811 39.7934 76.7186 38.9746C76.1561 38.3684 44.3874 6.94337 43.8624 6.39962C42.2999 4.78712 41.5374 3.84962 40.0624 3.91212C38.5811 3.97462 37.7061 5.06837 36.2249 6.43087C35.7874 6.84337 2.70615 39.2434 2.4999 39.4934Z" fill="#ED6C31"/>
<path d="M58.4374 50.5186H64.8437V45.1873C64.8437 44.9517 64.7973 44.7185 64.7071 44.5009C64.617 44.2832 64.4848 44.0855 64.3183 43.9189C64.1517 43.7524 63.954 43.6202 63.7363 43.5301C63.5187 43.44 63.2855 43.3936 63.0499 43.3936H58.4374V50.5186ZM56.5124 50.5186V43.3936H51.5124C51.2768 43.3936 51.0436 43.44 50.826 43.5301C50.6083 43.6202 50.4106 43.7524 50.244 43.9189C50.0775 44.0855 49.9453 44.2832 49.8552 44.5009C49.765 44.7185 49.7187 44.9517 49.7187 45.1873V50.5248H56.5124V50.5186ZM56.5124 52.5436H49.7187V57.5436C49.7187 58.0193 49.9076 58.4755 50.244 58.8119C50.5804 59.1483 51.0367 59.3373 51.5124 59.3373H56.5124V52.5436ZM58.4374 52.5436V59.3373H63.0499C63.5256 59.3373 63.9819 59.1483 64.3183 58.8119C64.6547 58.4755 64.8437 58.0193 64.8437 57.5436V52.5436H58.4374ZM22.9687 50.5186H29.3749V45.1873C29.3749 44.9517 29.3285 44.7185 29.2384 44.5009C29.1482 44.2832 29.0161 44.0855 28.8495 43.9189C28.683 43.7524 28.4852 43.6202 28.2676 43.5301C28.05 43.44 27.8167 43.3936 27.5812 43.3936H22.9687V50.5186ZM21.0374 50.5186V43.3936H16.0374C15.8018 43.3936 15.5686 43.44 15.351 43.5301C15.1333 43.6202 14.9356 43.7524 14.769 43.9189C14.6025 44.0855 14.4703 44.2832 14.3802 44.5009C14.29 44.7185 14.2437 44.9517 14.2437 45.1873V50.5248H21.0374V50.5186ZM21.0374 52.5436H14.2499V57.5436C14.2499 58.0193 14.4389 58.4755 14.7753 58.8119C15.1117 59.1483 15.5679 59.3373 16.0437 59.3373H21.0437V52.5436H21.0374ZM22.9687 52.5436V59.3373H27.5812C28.0569 59.3373 28.5131 59.1483 28.8495 58.8119C29.1859 58.4755 29.3749 58.0193 29.3749 57.5436V52.5436H22.9687Z" fill="#A6CFD5"/>
<path d="M31.4626 66.7066C31.4626 66.7066 31.3688 51.2441 31.4626 47.3378C31.5563 43.4378 35.2188 40.0628 39.4626 40.2066C44.7126 40.3878 47.4126 43.3378 47.6063 47.1441C47.8001 50.9503 47.8001 66.9441 47.8001 66.9441L31.4626 66.7066Z" fill="#D27857"/>
<path d="M33.4188 67.5442C33.4188 67.5442 33.3438 51.0692 33.4188 48.0192C33.5126 44.2379 36.3626 42.2504 39.6751 42.4379C43.5313 42.6567 45.4376 44.7067 45.5876 47.6879C45.7376 50.6629 45.7376 67.5567 45.7376 67.5567L33.4188 67.5442Z" fill="#AB5932"/>
<path d="M43.7438 54.1123C43.7313 51.3998 43.7063 49.0061 43.6688 48.2748C43.5688 46.3061 42.1688 44.7748 39.45 44.6811C37.2563 44.6061 35.45 46.3186 35.4 48.3373C35.3813 49.0811 35.3875 51.4186 35.4 54.0811L43.7438 54.1123ZM35.4188 57.1561C35.4438 60.7873 35.475 64.1311 35.475 64.1311L43.7688 64.1561C43.7688 64.1561 43.7688 60.8248 43.7563 57.1936L35.4188 57.1561Z" fill="#D27857"/>
<path d="M43.7687 55.5062C43.7375 56.3874 44.0937 57.0999 45.1375 57.0999C46.1812 57.0999 46.5625 56.6124 46.6375 55.6687C46.7 54.8249 46.1187 54.0749 45.1375 54.1374C44.1625 54.2062 43.7937 54.8874 43.7687 55.5062Z" fill="#FFBA02"/>
<path d="M49.7561 72.6941C49.7561 72.6941 56.5561 72.7629 61.4686 72.6191C66.3811 72.4754 69.9374 72.6941 70.6686 71.9566C71.3999 71.2254 71.3874 64.9941 67.9811 63.3066C64.8499 61.7566 62.8249 63.3316 61.7499 63.4379C60.3311 63.5816 58.5749 62.7004 57.2874 62.6754C51.9686 62.5629 50.1061 66.7441 50.1061 66.7441L49.7561 72.6941ZM9.08114 72.1816C9.64989 72.7129 13.9936 72.7316 19.2374 72.6941C24.4811 72.6566 28.6999 72.7066 28.6999 72.7066L29.5749 67.4129L28.5124 66.5316C28.5124 66.5316 28.6311 63.8816 25.2874 62.9754C22.9749 62.3504 20.9624 63.3816 19.0186 63.4129C17.0749 63.4504 15.2811 62.5691 13.1186 63.0816C11.1061 63.5566 9.53739 64.8691 8.89989 67.5191C8.45614 69.3566 8.56864 71.7004 9.08114 72.1816Z" fill="#728037"/>
<path d="M28.075 78.2309L28.1187 72.6996H28.525L28.5187 66.5371H50.225L50.15 72.6996H50.625V78.0871C50.6187 78.0809 28.075 78.2621 28.075 78.2309Z" fill="#B0B0B0"/>
<path d="M50.6188 75.8123V78.0811L28.0688 78.2311L28.0876 75.7936L50.6188 75.8123ZM28.5126 70.2998L50.1688 70.3061V72.6936H28.5126V70.2998Z" fill="#9B9B9B"/>
</svg>
