<svg width="28" height="34" viewBox="0 0 28 34" fill="none" xmlns="http://www.w3.org/2000/svg">
<path d="M4.00008 33.6663C3.08342 33.6663 2.29842 33.3397 1.64508 32.6863C0.991751 32.033 0.66564 31.2486 0.666751 30.333V3.66634C0.666751 2.74968 0.993417 1.96468 1.64675 1.31134C2.30008 0.65801 3.08453 0.3319 4.00008 0.333011H24.0001C24.9168 0.333011 25.7018 0.659677 26.3551 1.31301C27.0084 1.96634 27.3345 2.75079 27.3334 3.66634V30.333C27.3334 31.2497 27.0068 32.0347 26.3534 32.688C25.7001 33.3413 24.9156 33.6675 24.0001 33.6663H4.00008ZM4.00008 30.333H24.0001V3.66634H20.6668V15.333L16.5001 12.833L12.3334 15.333V3.66634H4.00008V30.333Z" fill="#A6A6A6"/>
</svg>
