<svg width="34" height="34" viewBox="0 0 34 34" fill="none" xmlns="http://www.w3.org/2000/svg">
<path d="M17 13.6667C17.766 13.6667 18.5246 13.5158 19.2323 13.2226C19.9401 12.9295 20.5831 12.4998 21.1248 11.9581C21.6665 11.4164 22.0961 10.7734 22.3893 10.0657C22.6824 9.35792 22.8333 8.59938 22.8333 7.83333C22.8333 7.06729 22.6824 6.30875 22.3893 5.60101C22.0961 4.89328 21.6665 4.25022 21.1248 3.70854C20.5831 3.16687 19.9401 2.73719 19.2323 2.44404C18.5246 2.15088 17.766 2 17 2C15.4529 2 13.9692 2.61458 12.8752 3.70854C11.7812 4.80251 11.1667 6.28624 11.1667 7.83333C11.1667 9.38043 11.7812 10.8642 12.8752 11.9581C13.9692 13.0521 15.4529 13.6667 17 13.6667ZM2 31V32H32V31C32 27.2667 32 25.4 31.2733 23.9733C30.6342 22.719 29.6144 21.6991 28.36 21.06C26.9333 20.3333 25.0667 20.3333 21.3333 20.3333H12.6667C8.93333 20.3333 7.06667 20.3333 5.64 21.06C4.38564 21.6991 3.36581 22.719 2.72667 23.9733C2 25.4 2 27.2667 2 31Z" stroke="#E7497A" stroke-width="4" stroke-linecap="round" stroke-linejoin="round"/>
</svg>
